solid ascii
  facet normal -0.000000e+000 1.000000e+000 0.000000e+000
    outer loop
      vertex   -9.000000e+001 3.975002e+002 1.000000e+001
      vertex   -6.000000e+001 3.975002e+002 1.000000e+001
      vertex   -9.000000e+001 3.975002e+002 7.811240e-014
    endloop
  endfacet
  facet normal -0.000000e+000 3.162278e-001 0.000000e+000
    outer loop
      vertex   -9.000000e+001 3.975002e+002 7.811240e-014
      vertex   -6.000000e+001 3.975002e+002 1.000000e+001
      vertex   -6.000000e+001 3.975002e+002 7.549517e-014
    endloop
  endfacet
  facet normal 0.000000e+000 9.486833e-001 0.000000e+000
    outer loop
      vertex   -6.000000e+001 3.975002e+002 7.549517e-014
      vertex   -6.000000e+001 3.975002e+002 1.000000e+001
      vertex   -3.000000e+001 3.975002e+002 1.000000e+001
    endloop
  endfacet
  facet normal -0.000000e+000 3.162278e-001 0.000000e+000
    outer loop
      vertex   -6.000000e+001 3.975002e+002 7.549517e-014
      vertex   -3.000000e+001 3.975002e+002 1.000000e+001
      vertex   -3.000000e+001 3.975002e+002 -1.443290e-014
    endloop
  endfacet
  facet normal -1.000000e+000 -0.000000e+000 0.000000e+000
    outer loop
      vertex   -9.000000e+001 3.975002e+002 7.811240e-014
      vertex   -9.000000e+001 3.450002e+002 6.256926e-014
      vertex   -9.000000e+001 3.975002e+002 1.000000e+001
    endloop
  endfacet
  facet normal -1.871119e-001 -0.000000e+000 0.000000e+000
    outer loop
      vertex   -9.000000e+001 3.975002e+002 1.000000e+001
      vertex   -9.000000e+001 3.450002e+002 6.256926e-014
      vertex   -9.000000e+001 3.450002e+002 1.000000e+001
    endloop
  endfacet
  facet normal -9.823386e-001 0.000000e+000 -0.000000e+000
    outer loop
      vertex   -9.000000e+001 3.450002e+002 1.000000e+001
      vertex   -9.000000e+001 3.450002e+002 6.256926e-014
      vertex   -9.000000e+001 2.925001e+002 4.702612e-014
    endloop
  endfacet
  facet normal -1.871119e-001 -0.000000e+000 0.000000e+000
    outer loop
      vertex   -9.000000e+001 3.450002e+002 1.000000e+001
      vertex   -9.000000e+001 2.925001e+002 4.702612e-014
      vertex   -9.000000e+001 2.925001e+002 1.000000e+001
    endloop
  endfacet
  facet normal -9.823386e-001 0.000000e+000 -0.000000e+000
    outer loop
      vertex   -9.000000e+001 2.925001e+002 1.000000e+001
      vertex   -9.000000e+001 2.925001e+002 4.702612e-014
      vertex   -9.000000e+001 2.400001e+002 3.148298e-014
    endloop
  endfacet
  facet normal -1.871119e-001 -0.000000e+000 0.000000e+000
    outer loop
      vertex   -9.000000e+001 2.925001e+002 1.000000e+001
      vertex   -9.000000e+001 2.400001e+002 3.148298e-014
      vertex   -9.000000e+001 2.400001e+002 1.000000e+001
    endloop
  endfacet
  facet normal -9.823386e-001 0.000000e+000 -0.000000e+000
    outer loop
      vertex   -9.000000e+001 2.400001e+002 1.000000e+001
      vertex   -9.000000e+001 2.400001e+002 3.148298e-014
      vertex   -9.000000e+001 1.875000e+002 1.593984e-014
    endloop
  endfacet
  facet normal -1.871119e-001 -0.000000e+000 0.000000e+000
    outer loop
      vertex   -9.000000e+001 2.400001e+002 1.000000e+001
      vertex   -9.000000e+001 1.875000e+002 1.593984e-014
      vertex   -9.000000e+001 1.875000e+002 1.000000e+001
    endloop
  endfacet
  facet normal -8.724123e-017 2.960595e-016 -1.000000e+000
    outer loop
      vertex   -9.000000e+001 3.975002e+002 7.811240e-014
      vertex   -6.000000e+001 3.975002e+002 7.549517e-014
      vertex   -9.000000e+001 3.450002e+002 6.256926e-014
    endloop
  endfacet
  facet normal -2.677645e-017 2.290688e-016 -8.682434e-001
    outer loop
      vertex   -9.000000e+001 3.450002e+002 6.256926e-014
      vertex   -6.000000e+001 3.975002e+002 7.549517e-014
      vertex   -3.000000e+001 3.450002e+002 6.071887e-014
    endloop
  endfacet
  facet normal -3.083979e-017 2.960595e-016 -1.000000e+000
    outer loop
      vertex   -9.000000e+001 3.450002e+002 6.256926e-014
      vertex   -3.000000e+001 3.450002e+002 6.071887e-014
      vertex   -9.000000e+001 2.925001e+002 4.702612e-014
    endloop
  endfacet
  facet normal -2.030816e-017 1.949566e-016 -6.585050e-001
    outer loop
      vertex   -9.000000e+001 2.925001e+002 4.702612e-014
      vertex   -3.000000e+001 3.450002e+002 6.071887e-014
      vertex   -3.000000e+001 2.925001e+002 4.517573e-014
    endloop
  endfacet
  facet normal -3.083979e-017 2.960595e-016 -1.000000e+000
    outer loop
      vertex   -9.000000e+001 2.925001e+002 4.702612e-014
      vertex   -3.000000e+001 2.925001e+002 4.517573e-014
      vertex   -9.000000e+001 2.400001e+002 3.148298e-014
    endloop
  endfacet
  facet normal -2.030816e-017 1.949566e-016 -6.585050e-001
    outer loop
      vertex   -9.000000e+001 2.400001e+002 3.148298e-014
      vertex   -3.000000e+001 2.925001e+002 4.517573e-014
      vertex   -3.000000e+001 2.400001e+002 2.963259e-014
    endloop
  endfacet
  facet normal -2.677645e-017 2.850334e-016 -8.682434e-001
    outer loop
      vertex   -9.000000e+001 2.400001e+002 3.148298e-014
      vertex   -3.000000e+001 2.400001e+002 2.963259e-014
      vertex   -6.000000e+001 1.875000e+002 1.332268e-014
    endloop
  endfacet
  facet normal 2.219160e-017 2.570517e-016 -8.682434e-001
    outer loop
      vertex   -6.000000e+001 1.875000e+002 1.332268e-014
      vertex   -3.000000e+001 2.400001e+002 2.963259e-014
      vertex   -3.000000e+001 1.875000e+002 1.408945e-014
    endloop
  endfacet
  facet normal -2.602648e-015 -1.242856e-015 -8.682434e-001
    outer loop
      vertex   -6.000000e+001 3.975002e+002 7.549517e-014
      vertex   -3.000000e+001 3.975002e+002 -1.443290e-014
      vertex   -3.000000e+001 3.450002e+002 6.071887e-014
    endloop
  endfacet
  facet normal -7.574456e-017 2.570517e-016 -8.682434e-001
    outer loop
      vertex   -6.000000e+001 1.875000e+002 1.332268e-014
      vertex   -9.000000e+001 1.875000e+002 1.593984e-014
      vertex   -9.000000e+001 2.400001e+002 3.148298e-014
    endloop
  endfacet
  facet normal -0.000000e+000 -1.000000e+000 -0.000000e+000
    outer loop
      vertex   -3.000000e+001 1.875000e+002 1.000000e+001
      vertex   -6.000000e+001 1.875000e+002 1.000000e+001
      vertex   -3.000000e+001 1.875000e+002 1.408945e-014
    endloop
  endfacet
  facet normal -0.000000e+000 -3.162278e-001 0.000000e+000
    outer loop
      vertex   -3.000000e+001 1.875000e+002 1.408945e-014
      vertex   -6.000000e+001 1.875000e+002 1.000000e+001
      vertex   -6.000000e+001 1.875000e+002 1.332268e-014
    endloop
  endfacet
  facet normal 0.000000e+000 -9.486833e-001 0.000000e+000
    outer loop
      vertex   -6.000000e+001 1.875000e+002 1.332268e-014
      vertex   -6.000000e+001 1.875000e+002 1.000000e+001
      vertex   -9.000000e+001 1.875000e+002 1.000000e+001
    endloop
  endfacet
  facet normal 0.000000e+000 -3.162278e-001 0.000000e+000
    outer loop
      vertex   -6.000000e+001 1.875000e+002 1.332268e-014
      vertex   -9.000000e+001 1.875000e+002 1.000000e+001
      vertex   -9.000000e+001 1.875000e+002 1.593984e-014
    endloop
  endfacet
  facet normal 1.000000e+000 0.000000e+000 0.000000e+000
    outer loop
      vertex   -3.000000e+001 1.875000e+002 1.408945e-014
      vertex   -3.000000e+001 2.400001e+002 2.963259e-014
      vertex   -3.000000e+001 1.875000e+002 1.000000e+001
    endloop
  endfacet
  facet normal 1.871119e-001 -0.000000e+000 0.000000e+000
    outer loop
      vertex   -3.000000e+001 1.875000e+002 1.000000e+001
      vertex   -3.000000e+001 2.400001e+002 2.963259e-014
      vertex   -3.000000e+001 2.400001e+002 1.000000e+001
    endloop
  endfacet
  facet normal 9.823386e-001 0.000000e+000 0.000000e+000
    outer loop
      vertex   -3.000000e+001 2.400001e+002 1.000000e+001
      vertex   -3.000000e+001 2.400001e+002 2.963259e-014
      vertex   -3.000000e+001 2.925001e+002 4.517573e-014
    endloop
  endfacet
  facet normal 1.871119e-001 -0.000000e+000 0.000000e+000
    outer loop
      vertex   -3.000000e+001 2.400001e+002 1.000000e+001
      vertex   -3.000000e+001 2.925001e+002 4.517573e-014
      vertex   -3.000000e+001 2.925001e+002 1.000000e+001
    endloop
  endfacet
  facet normal 9.823386e-001 0.000000e+000 0.000000e+000
    outer loop
      vertex   -3.000000e+001 2.925001e+002 1.000000e+001
      vertex   -3.000000e+001 2.925001e+002 4.517573e-014
      vertex   -3.000000e+001 3.450002e+002 6.071887e-014
    endloop
  endfacet
  facet normal 1.871119e-001 -0.000000e+000 0.000000e+000
    outer loop
      vertex   -3.000000e+001 2.925001e+002 1.000000e+001
      vertex   -3.000000e+001 3.450002e+002 6.071887e-014
      vertex   -3.000000e+001 3.450002e+002 1.000000e+001
    endloop
  endfacet
  facet normal 9.823386e-001 0.000000e+000 0.000000e+000
    outer loop
      vertex   -3.000000e+001 3.450002e+002 1.000000e+001
      vertex   -3.000000e+001 3.450002e+002 6.071887e-014
      vertex   -3.000000e+001 3.975002e+002 -1.443290e-014
    endloop
  endfacet
  facet normal 1.871119e-001 -0.000000e+000 0.000000e+000
    outer loop
      vertex   -3.000000e+001 3.450002e+002 1.000000e+001
      vertex   -3.000000e+001 3.975002e+002 -1.443290e-014
      vertex   -3.000000e+001 3.975002e+002 1.000000e+001
    endloop
  endfacet
  facet normal -0.000000e+000 0.000000e+000 1.000000e+000
    outer loop
      vertex   -9.000000e+001 3.975002e+002 1.000000e+001
      vertex   -9.000000e+001 3.450002e+002 1.000000e+001
      vertex   -6.000000e+001 3.975002e+002 1.000000e+001
    endloop
  endfacet
  facet normal 0.000000e+000 0.000000e+000 8.615379e-001
    outer loop
      vertex   -6.000000e+001 3.975002e+002 1.000000e+001
      vertex   -9.000000e+001 3.450002e+002 1.000000e+001
      vertex   -3.000000e+001 3.450002e+002 1.000000e+001
    endloop
  endfacet
  facet normal -0.000000e+000 0.000000e+000 8.682434e-001
    outer loop
      vertex   -6.000000e+001 3.975002e+002 1.000000e+001
      vertex   -3.000000e+001 3.450002e+002 1.000000e+001
      vertex   -3.000000e+001 3.975002e+002 1.000000e+001
    endloop
  endfacet
  facet normal 0.000000e+000 0.000000e+000 1.000000e+000
    outer loop
      vertex   -3.000000e+001 3.450002e+002 1.000000e+001
      vertex   -9.000000e+001 3.450002e+002 1.000000e+001
      vertex   -3.000000e+001 2.925001e+002 1.000000e+001
    endloop
  endfacet
  facet normal 0.000000e+000 0.000000e+000 6.585050e-001
    outer loop
      vertex   -3.000000e+001 2.925001e+002 1.000000e+001
      vertex   -9.000000e+001 3.450002e+002 1.000000e+001
      vertex   -9.000000e+001 2.925001e+002 1.000000e+001
    endloop
  endfacet
  facet normal 0.000000e+000 0.000000e+000 1.000000e+000
    outer loop
      vertex   -3.000000e+001 2.925001e+002 1.000000e+001
      vertex   -9.000000e+001 2.925001e+002 1.000000e+001
      vertex   -3.000000e+001 2.400001e+002 1.000000e+001
    endloop
  endfacet
  facet normal 0.000000e+000 0.000000e+000 6.585050e-001
    outer loop
      vertex   -3.000000e+001 2.400001e+002 1.000000e+001
      vertex   -9.000000e+001 2.925001e+002 1.000000e+001
      vertex   -9.000000e+001 2.400001e+002 1.000000e+001
    endloop
  endfacet
  facet normal 0.000000e+000 0.000000e+000 8.682434e-001
    outer loop
      vertex   -3.000000e+001 2.400001e+002 1.000000e+001
      vertex   -9.000000e+001 2.400001e+002 1.000000e+001
      vertex   -6.000000e+001 1.875000e+002 1.000000e+001
    endloop
  endfacet
  facet normal 0.000000e+000 0.000000e+000 8.682434e-001
    outer loop
      vertex   -6.000000e+001 1.875000e+002 1.000000e+001
      vertex   -9.000000e+001 2.400001e+002 1.000000e+001
      vertex   -9.000000e+001 1.875000e+002 1.000000e+001
    endloop
  endfacet
  facet normal 0.000000e+000 0.000000e+000 8.682434e-001
    outer loop
      vertex   -6.000000e+001 1.875000e+002 1.000000e+001
      vertex   -3.000000e+001 1.875000e+002 1.000000e+001
      vertex   -3.000000e+001 2.400001e+002 1.000000e+001
    endloop
  endfacet
endsolid
