solid ascii
  facet normal 0.000000e+000 0.000000e+000 -1.000000e+000
    outer loop
      vertex   -4.431104e+002 8.794791e+001 2.442491e-014
      vertex   -4.431104e+002 9.294791e+001 2.442491e-014
      vertex   -4.132673e+002 8.794791e+001 2.442491e-014
    endloop
  endfacet
  facet normal 0.000000e+000 0.000000e+000 -3.072775e-002
    outer loop
      vertex   -4.132673e+002 8.794791e+001 2.442491e-014
      vertex   -4.431104e+002 9.294791e+001 2.442491e-014
      vertex   -4.431103e+002 9.389598e+001 2.442491e-014
    endloop
  endfacet
  facet normal 0.000000e+000 0.000000e+000 -7.834758e-001
    outer loop
      vertex   -4.132673e+002 8.794791e+001 2.442491e-014
      vertex   -4.431103e+002 9.389598e+001 2.442491e-014
      vertex   -4.431104e+002 1.461460e+002 2.442491e-014
    endloop
  endfacet
  facet normal 0.000000e+000 0.000000e+000 -9.987738e-001
    outer loop
      vertex   -4.431104e+002 1.983960e+002 2.442491e-014
      vertex   -3.831104e+002 1.954219e+002 2.442491e-014
      vertex   -4.431104e+002 1.461460e+002 2.442491e-014
    endloop
  endfacet
  facet normal 0.000000e+000 0.000000e+000 -6.902168e-001
    outer loop
      vertex   -4.431104e+002 1.461460e+002 2.442491e-014
      vertex   -3.831104e+002 1.954219e+002 2.442491e-014
      vertex   -3.831104e+002 1.416849e+002 2.442491e-014
    endloop
  endfacet
  facet normal 0.000000e+000 0.000000e+000 -8.535487e-001
    outer loop
      vertex   -4.431104e+002 1.461460e+002 2.442491e-014
      vertex   -3.831104e+002 1.416849e+002 2.442491e-014
      vertex   -4.132673e+002 8.794791e+001 2.442491e-014
    endloop
  endfacet
  facet normal 0.000000e+000 0.000000e+000 -8.720616e-001
    outer loop
      vertex   -4.132673e+002 8.794791e+001 2.442491e-014
      vertex   -3.831104e+002 1.416849e+002 2.442491e-014
      vertex   -3.834242e+002 8.794791e+001 2.442491e-014
    endloop
  endfacet
  facet normal 0.000000e+000 0.000000e+000 -9.999830e-001
    outer loop
      vertex   -3.834242e+002 8.794791e+001 2.442491e-014
      vertex   -3.831104e+002 1.416849e+002 2.442491e-014
      vertex   -3.831104e+002 8.794791e+001 2.442491e-014
    endloop
  endfacet
  facet normal 0.000000e+000 0.000000e+000 -9.987738e-001
    outer loop
      vertex   -3.831104e+002 1.954219e+002 2.442491e-014
      vertex   -4.431104e+002 1.983960e+002 2.442491e-014
      vertex   -3.831104e+002 2.491590e+002 2.442491e-014
    endloop
  endfacet
  facet normal -0.000000e+000 0.000000e+000 -6.646123e-001
    outer loop
      vertex   -3.831104e+002 2.491590e+002 2.442491e-014
      vertex   -4.431104e+002 1.983960e+002 2.442491e-014
      vertex   -4.431104e+002 2.506460e+002 2.442491e-014
    endloop
  endfacet
  facet normal 0.000000e+000 0.000000e+000 -8.608024e-001
    outer loop
      vertex   -3.831104e+002 2.491590e+002 2.442491e-014
      vertex   -4.431104e+002 2.506460e+002 2.442491e-014
      vertex   -4.131104e+002 3.028960e+002 2.442491e-014
    endloop
  endfacet
  facet normal -0.000000e+000 0.000000e+000 -8.672200e-001
    outer loop
      vertex   -4.131104e+002 3.028960e+002 2.442491e-014
      vertex   -4.431104e+002 2.506460e+002 2.442491e-014
      vertex   -4.431104e+002 3.028960e+002 2.442491e-014
    endloop
  endfacet
  facet normal 0.000000e+000 0.000000e+000 -8.731477e-001
    outer loop
      vertex   -4.131104e+002 3.028960e+002 2.442491e-014
      vertex   -3.831104e+002 3.028960e+002 2.442491e-014
      vertex   -3.831104e+002 2.491590e+002 2.442491e-014
    endloop
  endfacet
  facet normal -1.000000e+000 0.000000e+000 0.000000e+000
    outer loop
      vertex   -4.431104e+002 8.794791e+001 2.442491e-014
      vertex   -4.431104e+002 8.794791e+001 2.000000e+001
      vertex   -4.431104e+002 9.294791e+001 2.442491e-014
    endloop
  endfacet
  facet normal -2.425356e-001 0.000000e+000 0.000000e+000
    outer loop
      vertex   -4.431104e+002 9.294791e+001 2.442491e-014
      vertex   -4.431104e+002 8.794791e+001 2.000000e+001
      vertex   -4.431104e+002 9.294791e+001 2.000000e+001
    endloop
  endfacet
  facet normal -1.000000e+000 3.218901e-005 0.000000e+000
    outer loop
      vertex   -4.431104e+002 9.294791e+001 2.442491e-014
      vertex   -4.431104e+002 9.294791e+001 2.000000e+001
      vertex   -4.431103e+002 9.389598e+001 2.442491e-014
    endloop
  endfacet
  facet normal -4.735054e-002 1.524167e-006 0.000000e+000
    outer loop
      vertex   -4.431103e+002 9.389598e+001 2.442491e-014
      vertex   -4.431104e+002 9.294791e+001 2.000000e+001
      vertex   -4.431103e+002 9.389598e+001 2.000000e+001
    endloop
  endfacet
  facet normal -9.339203e-001 -5.454734e-007 0.000000e+000
    outer loop
      vertex   -4.431103e+002 9.389598e+001 2.442491e-014
      vertex   -4.431103e+002 9.389598e+001 2.000000e+001
      vertex   -4.431104e+002 1.461460e+002 2.000000e+001
    endloop
  endfacet
  facet normal -3.574814e-001 -2.087936e-007 0.000000e+000
    outer loop
      vertex   -4.431103e+002 9.389598e+001 2.442491e-014
      vertex   -4.431104e+002 1.461460e+002 2.000000e+001
      vertex   -4.431104e+002 1.461460e+002 2.442491e-014
    endloop
  endfacet
  facet normal -9.339203e-001 0.000000e+000 0.000000e+000
    outer loop
      vertex   -4.431104e+002 1.461460e+002 2.442491e-014
      vertex   -4.431104e+002 1.461460e+002 2.000000e+001
      vertex   -4.431104e+002 1.983960e+002 2.000000e+001
    endloop
  endfacet
  facet normal -3.574814e-001 0.000000e+000 0.000000e+000
    outer loop
      vertex   -4.431104e+002 1.461460e+002 2.442491e-014
      vertex   -4.431104e+002 1.983960e+002 2.000000e+001
      vertex   -4.431104e+002 1.983960e+002 2.442491e-014
    endloop
  endfacet
  facet normal -9.339203e-001 0.000000e+000 0.000000e+000
    outer loop
      vertex   -4.431104e+002 1.983960e+002 2.442491e-014
      vertex   -4.431104e+002 1.983960e+002 2.000000e+001
      vertex   -4.431104e+002 2.506460e+002 2.000000e+001
    endloop
  endfacet
  facet normal -3.574814e-001 0.000000e+000 0.000000e+000
    outer loop
      vertex   -4.431104e+002 1.983960e+002 2.442491e-014
      vertex   -4.431104e+002 2.506460e+002 2.000000e+001
      vertex   -4.431104e+002 2.506460e+002 2.442491e-014
    endloop
  endfacet
  facet normal -1.000000e+000 0.000000e+000 0.000000e+000
    outer loop
      vertex   -4.431104e+002 2.506460e+002 2.442491e-014
      vertex   -4.431104e+002 2.506460e+002 2.000000e+001
      vertex   -4.431104e+002 3.028960e+002 2.442491e-014
    endloop
  endfacet
  facet normal -9.339203e-001 0.000000e+000 0.000000e+000
    outer loop
      vertex   -4.431104e+002 3.028960e+002 2.442491e-014
      vertex   -4.431104e+002 2.506460e+002 2.000000e+001
      vertex   -4.431104e+002 3.028960e+002 2.000000e+001
    endloop
  endfacet
  facet normal 0.000000e+000 0.000000e+000 1.000000e+000
    outer loop
      vertex   -4.431104e+002 8.794791e+001 2.000000e+001
      vertex   -4.381104e+002 8.794791e+001 2.000000e+001
      vertex   -4.431104e+002 9.294791e+001 2.000000e+001
    endloop
  endfacet
  facet normal -0.000000e+000 0.000000e+000 7.071295e-001
    outer loop
      vertex   -4.431104e+002 9.294791e+001 2.000000e+001
      vertex   -4.381104e+002 8.794791e+001 2.000000e+001
      vertex   -4.431103e+002 9.389598e+001 2.000000e+001
    endloop
  endfacet
  facet normal -0.000000e+000 0.000000e+000 7.196236e-001
    outer loop
      vertex   -4.431103e+002 9.389598e+001 2.000000e+001
      vertex   -4.381104e+002 8.794791e+001 2.000000e+001
      vertex   -4.381104e+002 1.416849e+002 2.000000e+001
    endloop
  endfacet
  facet normal 0.000000e+000 -0.000000e+000 1.040587e-001
    outer loop
      vertex   -4.431103e+002 9.389598e+001 2.000000e+001
      vertex   -4.381104e+002 1.416849e+002 2.000000e+001
      vertex   -4.431104e+002 1.461460e+002 2.000000e+001
    endloop
  endfacet
  facet normal -0.000000e+000 0.000000e+000 8.095728e-001
    outer loop
      vertex   -4.431104e+002 1.461460e+002 2.000000e+001
      vertex   -4.381104e+002 1.416849e+002 2.000000e+001
      vertex   -4.381104e+002 1.954220e+002 2.000000e+001
    endloop
  endfacet
  facet normal 0.000000e+000 0.000000e+000 1.009510e-001
    outer loop
      vertex   -4.431104e+002 1.461460e+002 2.000000e+001
      vertex   -4.381104e+002 1.954220e+002 2.000000e+001
      vertex   -4.431104e+002 1.983960e+002 2.000000e+001
    endloop
  endfacet
  facet normal -0.000000e+000 0.000000e+000 9.054272e-001
    outer loop
      vertex   -4.431104e+002 1.983960e+002 2.000000e+001
      vertex   -4.381104e+002 1.954220e+002 2.000000e+001
      vertex   -4.381104e+002 2.491590e+002 2.000000e+001
    endloop
  endfacet
  facet normal 0.000000e+000 0.000000e+000 9.802262e-002
    outer loop
      vertex   -4.431104e+002 1.983960e+002 2.000000e+001
      vertex   -4.381104e+002 2.491590e+002 2.000000e+001
      vertex   -4.431104e+002 2.506460e+002 2.000000e+001
    endloop
  endfacet
  facet normal -0.000000e+000 0.000000e+000 9.813046e-001
    outer loop
      vertex   -4.431104e+002 2.506460e+002 2.000000e+001
      vertex   -4.381104e+002 2.491590e+002 2.000000e+001
      vertex   -4.381104e+002 3.028960e+002 2.000000e+001
    endloop
  endfacet
  facet normal 0.000000e+000 0.000000e+000 9.525859e-002
    outer loop
      vertex   -4.431104e+002 2.506460e+002 2.000000e+001
      vertex   -4.381104e+002 3.028960e+002 2.000000e+001
      vertex   -4.431104e+002 3.028960e+002 2.000000e+001
    endloop
  endfacet
  facet normal -0.000000e+000 -1.000000e+000 -0.000000e+000
    outer loop
      vertex   -4.381104e+002 8.794791e+001 2.000000e+001
      vertex   -4.431104e+002 8.794791e+001 2.000000e+001
      vertex   -4.381104e+002 8.794791e+001 8.000000e+000
    endloop
  endfacet
  facet normal -0.000000e+000 -8.153830e-001 0.000000e+000
    outer loop
      vertex   -4.381104e+002 8.794791e+001 8.000000e+000
      vertex   -4.431104e+002 8.794791e+001 2.000000e+001
      vertex   -4.431104e+002 8.794791e+001 2.442491e-014
    endloop
  endfacet
  facet normal 0.000000e+000 -9.696347e-001 -0.000000e+000
    outer loop
      vertex   -4.381104e+002 8.794791e+001 8.000000e+000
      vertex   -4.431104e+002 8.794791e+001 2.442491e-014
      vertex   -4.132673e+002 8.794791e+001 2.442491e-014
    endloop
  endfacet
  facet normal 0.000000e+000 -3.065205e-001 0.000000e+000
    outer loop
      vertex   -4.381104e+002 8.794791e+001 8.000000e+000
      vertex   -4.132673e+002 8.794791e+001 2.442491e-014
      vertex   -3.881104e+002 8.794791e+001 8.000000e+000
    endloop
  endfacet
  facet normal 0.000000e+000 -9.754592e-001 -0.000000e+000
    outer loop
      vertex   -3.881104e+002 8.794791e+001 8.000000e+000
      vertex   -4.132673e+002 8.794791e+001 2.442491e-014
      vertex   -3.834242e+002 8.794791e+001 2.442491e-014
    endloop
  endfacet
  facet normal 0.000000e+000 -2.870508e-002 0.000000e+000
    outer loop
      vertex   -3.881104e+002 8.794791e+001 8.000000e+000
      vertex   -3.834242e+002 8.794791e+001 2.442491e-014
      vertex   -3.831104e+002 8.794791e+001 2.442491e-014
    endloop
  endfacet
  facet normal 0.000000e+000 -5.299990e-001 0.000000e+000
    outer loop
      vertex   -3.831104e+002 8.794791e+001 2.442491e-014
      vertex   -3.831104e+002 8.794791e+001 2.000000e+001
      vertex   -3.881104e+002 8.794791e+001 8.000000e+000
    endloop
  endfacet
  facet normal 0.000000e+000 -2.248787e-002 0.000000e+000
    outer loop
      vertex   -3.881104e+002 8.794791e+001 8.000000e+000
      vertex   -3.831104e+002 8.794791e+001 2.000000e+001
      vertex   -3.834242e+002 8.794791e+001 2.000000e+001
    endloop
  endfacet
  facet normal 0.000000e+000 -3.637601e-001 0.000000e+000
    outer loop
      vertex   -3.881104e+002 8.794791e+001 8.000000e+000
      vertex   -3.834242e+002 8.794791e+001 2.000000e+001
      vertex   -3.881104e+002 8.794791e+001 2.000000e+001
    endloop
  endfacet
  facet normal 0.000000e+000 3.846154e-001 0.000000e+000
    outer loop
      vertex   -3.831104e+002 3.028960e+002 2.000000e+001
      vertex   -3.831104e+002 3.028960e+002 2.442491e-014
      vertex   -3.881104e+002 3.028960e+002 8.000000e+000
    endloop
  endfacet
  facet normal 0.000000e+000 9.691849e-001 0.000000e+000
    outer loop
      vertex   -3.881104e+002 3.028960e+002 8.000000e+000
      vertex   -3.831104e+002 3.028960e+002 2.442491e-014
      vertex   -4.131104e+002 3.028960e+002 2.442491e-014
    endloop
  endfacet
  facet normal 0.000000e+000 3.047757e-001 0.000000e+000
    outer loop
      vertex   -3.881104e+002 3.028960e+002 8.000000e+000
      vertex   -4.131104e+002 3.028960e+002 2.442491e-014
      vertex   -4.381104e+002 3.028960e+002 8.000000e+000
    endloop
  endfacet
  facet normal 0.000000e+000 9.691849e-001 0.000000e+000
    outer loop
      vertex   -4.381104e+002 3.028960e+002 8.000000e+000
      vertex   -4.131104e+002 3.028960e+002 2.442491e-014
      vertex   -4.431104e+002 3.028960e+002 2.442491e-014
    endloop
  endfacet
  facet normal 0.000000e+000 8.153830e-001 0.000000e+000
    outer loop
      vertex   -4.381104e+002 3.028960e+002 8.000000e+000
      vertex   -4.431104e+002 3.028960e+002 2.442491e-014
      vertex   -4.431104e+002 3.028960e+002 2.000000e+001
    endloop
  endfacet
  facet normal -0.000000e+000 9.230769e-001 0.000000e+000
    outer loop
      vertex   -4.431104e+002 3.028960e+002 2.000000e+001
      vertex   -4.381104e+002 3.028960e+002 2.000000e+001
      vertex   -4.381104e+002 3.028960e+002 8.000000e+000
    endloop
  endfacet
  facet normal 0.000000e+000 3.846154e-001 0.000000e+000
    outer loop
      vertex   -3.881104e+002 3.028960e+002 8.000000e+000
      vertex   -3.881104e+002 3.028960e+002 2.000000e+001
      vertex   -3.831104e+002 3.028960e+002 2.000000e+001
    endloop
  endfacet
  facet normal 0.000000e+000 0.000000e+000 1.000000e+000
    outer loop
      vertex   -3.881104e+002 3.028960e+002 8.000000e+000
      vertex   -4.381104e+002 3.028960e+002 8.000000e+000
      vertex   -3.881104e+002 2.491590e+002 8.000000e+000
    endloop
  endfacet
  facet normal 0.000000e+000 0.000000e+000 7.321048e-001
    outer loop
      vertex   -3.881104e+002 2.491590e+002 8.000000e+000
      vertex   -4.381104e+002 3.028960e+002 8.000000e+000
      vertex   -4.381104e+002 2.491590e+002 8.000000e+000
    endloop
  endfacet
  facet normal 0.000000e+000 0.000000e+000 1.000000e+000
    outer loop
      vertex   -3.881104e+002 2.491590e+002 8.000000e+000
      vertex   -4.381104e+002 2.491590e+002 8.000000e+000
      vertex   -3.881104e+002 1.954220e+002 8.000000e+000
    endloop
  endfacet
  facet normal 0.000000e+000 0.000000e+000 7.321047e-001
    outer loop
      vertex   -3.881104e+002 1.954220e+002 8.000000e+000
      vertex   -4.381104e+002 2.491590e+002 8.000000e+000
      vertex   -4.381104e+002 1.954220e+002 8.000000e+000
    endloop
  endfacet
  facet normal 0.000000e+000 0.000000e+000 1.000000e+000
    outer loop
      vertex   -3.881104e+002 1.954220e+002 8.000000e+000
      vertex   -4.381104e+002 1.954220e+002 8.000000e+000
      vertex   -3.881104e+002 1.416849e+002 8.000000e+000
    endloop
  endfacet
  facet normal 0.000000e+000 0.000000e+000 7.321048e-001
    outer loop
      vertex   -3.881104e+002 1.416849e+002 8.000000e+000
      vertex   -4.381104e+002 1.954220e+002 8.000000e+000
      vertex   -4.381104e+002 1.416849e+002 8.000000e+000
    endloop
  endfacet
  facet normal 0.000000e+000 0.000000e+000 1.000000e+000
    outer loop
      vertex   -3.881104e+002 1.416849e+002 8.000000e+000
      vertex   -4.381104e+002 1.416849e+002 8.000000e+000
      vertex   -3.881104e+002 8.794791e+001 8.000000e+000
    endloop
  endfacet
  facet normal 0.000000e+000 0.000000e+000 7.321047e-001
    outer loop
      vertex   -3.881104e+002 8.794791e+001 8.000000e+000
      vertex   -4.381104e+002 1.416849e+002 8.000000e+000
      vertex   -4.381104e+002 8.794791e+001 8.000000e+000
    endloop
  endfacet
  facet normal 1.000000e+000 0.000000e+000 0.000000e+000
    outer loop
      vertex   -4.381104e+002 3.028960e+002 2.000000e+001
      vertex   -4.381104e+002 2.491590e+002 2.000000e+001
      vertex   -4.381104e+002 3.028960e+002 8.000000e+000
    endloop
  endfacet
  facet normal 2.179417e-001 0.000000e+000 0.000000e+000
    outer loop
      vertex   -4.381104e+002 3.028960e+002 8.000000e+000
      vertex   -4.381104e+002 2.491590e+002 2.000000e+001
      vertex   -4.381104e+002 2.491590e+002 8.000000e+000
    endloop
  endfacet
  facet normal 9.759617e-001 0.000000e+000 -0.000000e+000
    outer loop
      vertex   -4.381104e+002 2.491590e+002 8.000000e+000
      vertex   -4.381104e+002 2.491590e+002 2.000000e+001
      vertex   -4.381104e+002 1.954220e+002 2.000000e+001
    endloop
  endfacet
  facet normal 2.179418e-001 0.000000e+000 0.000000e+000
    outer loop
      vertex   -4.381104e+002 2.491590e+002 8.000000e+000
      vertex   -4.381104e+002 1.954220e+002 2.000000e+001
      vertex   -4.381104e+002 1.954220e+002 8.000000e+000
    endloop
  endfacet
  facet normal 9.759618e-001 0.000000e+000 -0.000000e+000
    outer loop
      vertex   -4.381104e+002 1.954220e+002 8.000000e+000
      vertex   -4.381104e+002 1.954220e+002 2.000000e+001
      vertex   -4.381104e+002 1.416849e+002 2.000000e+001
    endloop
  endfacet
  facet normal 2.179417e-001 0.000000e+000 0.000000e+000
    outer loop
      vertex   -4.381104e+002 1.954220e+002 8.000000e+000
      vertex   -4.381104e+002 1.416849e+002 2.000000e+001
      vertex   -4.381104e+002 1.416849e+002 8.000000e+000
    endloop
  endfacet
  facet normal 9.759617e-001 0.000000e+000 -0.000000e+000
    outer loop
      vertex   -4.381104e+002 1.416849e+002 8.000000e+000
      vertex   -4.381104e+002 1.416849e+002 2.000000e+001
      vertex   -4.381104e+002 8.794791e+001 2.000000e+001
    endloop
  endfacet
  facet normal 2.179418e-001 0.000000e+000 0.000000e+000
    outer loop
      vertex   -4.381104e+002 1.416849e+002 8.000000e+000
      vertex   -4.381104e+002 8.794791e+001 2.000000e+001
      vertex   -4.381104e+002 8.794791e+001 8.000000e+000
    endloop
  endfacet
  facet normal -1.000000e+000 0.000000e+000 0.000000e+000
    outer loop
      vertex   -3.881104e+002 3.028960e+002 8.000000e+000
      vertex   -3.881104e+002 2.491590e+002 8.000000e+000
      vertex   -3.881104e+002 3.028960e+002 2.000000e+001
    endloop
  endfacet
  facet normal -2.179417e-001 -0.000000e+000 0.000000e+000
    outer loop
      vertex   -3.881104e+002 3.028960e+002 2.000000e+001
      vertex   -3.881104e+002 2.491590e+002 8.000000e+000
      vertex   -3.881104e+002 2.491590e+002 2.000000e+001
    endloop
  endfacet
  facet normal -9.759617e-001 0.000000e+000 -0.000000e+000
    outer loop
      vertex   -3.881104e+002 2.491590e+002 2.000000e+001
      vertex   -3.881104e+002 2.491590e+002 8.000000e+000
      vertex   -3.881104e+002 1.954220e+002 8.000000e+000
    endloop
  endfacet
  facet normal -2.179418e-001 -0.000000e+000 0.000000e+000
    outer loop
      vertex   -3.881104e+002 2.491590e+002 2.000000e+001
      vertex   -3.881104e+002 1.954220e+002 8.000000e+000
      vertex   -3.881104e+002 1.954220e+002 2.000000e+001
    endloop
  endfacet
  facet normal -9.759618e-001 0.000000e+000 -0.000000e+000
    outer loop
      vertex   -3.881104e+002 1.954220e+002 2.000000e+001
      vertex   -3.881104e+002 1.954220e+002 8.000000e+000
      vertex   -3.881104e+002 1.416849e+002 8.000000e+000
    endloop
  endfacet
  facet normal -2.179417e-001 -0.000000e+000 0.000000e+000
    outer loop
      vertex   -3.881104e+002 1.954220e+002 2.000000e+001
      vertex   -3.881104e+002 1.416849e+002 8.000000e+000
      vertex   -3.881104e+002 1.416849e+002 2.000000e+001
    endloop
  endfacet
  facet normal -9.759617e-001 0.000000e+000 -0.000000e+000
    outer loop
      vertex   -3.881104e+002 1.416849e+002 2.000000e+001
      vertex   -3.881104e+002 1.416849e+002 8.000000e+000
      vertex   -3.881104e+002 8.794791e+001 8.000000e+000
    endloop
  endfacet
  facet normal -2.179418e-001 -0.000000e+000 0.000000e+000
    outer loop
      vertex   -3.881104e+002 1.416849e+002 2.000000e+001
      vertex   -3.881104e+002 8.794791e+001 8.000000e+000
      vertex   -3.881104e+002 8.794791e+001 2.000000e+001
    endloop
  endfacet
  facet normal 0.000000e+000 -0.000000e+000 1.000000e+000
    outer loop
      vertex   -3.831104e+002 8.794791e+001 2.000000e+001
      vertex   -3.831104e+002 1.416849e+002 2.000000e+001
      vertex   -3.834242e+002 8.794791e+001 2.000000e+001
    endloop
  endfacet
  facet normal 0.000000e+000 -0.000000e+000 9.269236e-002
    outer loop
      vertex   -3.834242e+002 8.794791e+001 2.000000e+001
      vertex   -3.831104e+002 1.416849e+002 2.000000e+001
      vertex   -3.881104e+002 1.416849e+002 2.000000e+001
    endloop
  endfacet
  facet normal 0.000000e+000 0.000000e+000 9.962192e-001
    outer loop
      vertex   -3.834242e+002 8.794791e+001 2.000000e+001
      vertex   -3.881104e+002 1.416849e+002 2.000000e+001
      vertex   -3.881104e+002 8.794791e+001 2.000000e+001
    endloop
  endfacet
  facet normal 0.000000e+000 -0.000000e+000 1.000000e+000
    outer loop
      vertex   -3.831104e+002 1.416849e+002 2.000000e+001
      vertex   -3.831104e+002 1.954219e+002 2.000000e+001
      vertex   -3.881104e+002 1.416849e+002 2.000000e+001
    endloop
  endfacet
  facet normal 0.000000e+000 0.000000e+000 9.264556e-002
    outer loop
      vertex   -3.881104e+002 1.416849e+002 2.000000e+001
      vertex   -3.831104e+002 1.954219e+002 2.000000e+001
      vertex   -3.881104e+002 1.954220e+002 2.000000e+001
    endloop
  endfacet
  facet normal -0.000000e+000 0.000000e+000 9.956994e-001
    outer loop
      vertex   -3.881104e+002 1.954220e+002 2.000000e+001
      vertex   -3.831104e+002 1.954219e+002 2.000000e+001
      vertex   -3.831104e+002 2.491590e+002 2.000000e+001
    endloop
  endfacet
  facet normal 0.000000e+000 0.000000e+000 9.264556e-002
    outer loop
      vertex   -3.881104e+002 1.954220e+002 2.000000e+001
      vertex   -3.831104e+002 2.491590e+002 2.000000e+001
      vertex   -3.881104e+002 2.491590e+002 2.000000e+001
    endloop
  endfacet
  facet normal 0.000000e+000 0.000000e+000 9.956992e-001
    outer loop
      vertex   -3.881104e+002 2.491590e+002 2.000000e+001
      vertex   -3.831104e+002 2.491590e+002 2.000000e+001
      vertex   -3.831104e+002 3.028960e+002 2.000000e+001
    endloop
  endfacet
  facet normal 0.000000e+000 0.000000e+000 9.264553e-002
    outer loop
      vertex   -3.881104e+002 2.491590e+002 2.000000e+001
      vertex   -3.831104e+002 3.028960e+002 2.000000e+001
      vertex   -3.881104e+002 3.028960e+002 2.000000e+001
    endloop
  endfacet
  facet normal 1.000000e+000 0.000000e+000 0.000000e+000
    outer loop
      vertex   -3.831104e+002 8.794791e+001 2.442491e-014
      vertex   -3.831104e+002 1.416849e+002 2.442491e-014
      vertex   -3.831104e+002 8.794791e+001 2.000000e+001
    endloop
  endfacet
  facet normal 3.488077e-001 -0.000000e+000 0.000000e+000
    outer loop
      vertex   -3.831104e+002 8.794791e+001 2.000000e+001
      vertex   -3.831104e+002 1.416849e+002 2.442491e-014
      vertex   -3.831104e+002 1.416849e+002 2.000000e+001
    endloop
  endfacet
  facet normal 9.371943e-001 0.000000e+000 0.000000e+000
    outer loop
      vertex   -3.831104e+002 1.416849e+002 2.000000e+001
      vertex   -3.831104e+002 1.416849e+002 2.442491e-014
      vertex   -3.831104e+002 1.954219e+002 2.442491e-014
    endloop
  endfacet
  facet normal 3.488077e-001 -0.000000e+000 0.000000e+000
    outer loop
      vertex   -3.831104e+002 1.416849e+002 2.000000e+001
      vertex   -3.831104e+002 1.954219e+002 2.442491e-014
      vertex   -3.831104e+002 1.954219e+002 2.000000e+001
    endloop
  endfacet
  facet normal 9.371943e-001 0.000000e+000 0.000000e+000
    outer loop
      vertex   -3.831104e+002 1.954219e+002 2.000000e+001
      vertex   -3.831104e+002 1.954219e+002 2.442491e-014
      vertex   -3.831104e+002 2.491590e+002 2.442491e-014
    endloop
  endfacet
  facet normal 3.488076e-001 -0.000000e+000 0.000000e+000
    outer loop
      vertex   -3.831104e+002 1.954219e+002 2.000000e+001
      vertex   -3.831104e+002 2.491590e+002 2.442491e-014
      vertex   -3.831104e+002 2.491590e+002 2.000000e+001
    endloop
  endfacet
  facet normal 9.371943e-001 0.000000e+000 0.000000e+000
    outer loop
      vertex   -3.831104e+002 2.491590e+002 2.000000e+001
      vertex   -3.831104e+002 2.491590e+002 2.442491e-014
      vertex   -3.831104e+002 3.028960e+002 2.442491e-014
    endloop
  endfacet
  facet normal 3.488076e-001 -0.000000e+000 0.000000e+000
    outer loop
      vertex   -3.831104e+002 2.491590e+002 2.000000e+001
      vertex   -3.831104e+002 3.028960e+002 2.442491e-014
      vertex   -3.831104e+002 3.028960e+002 2.000000e+001
    endloop
  endfacet
endsolid
