solid ascii
  facet normal 0.000000e+000 -1.000000e+000 0.000000e+000
    outer loop
      vertex   -2.897321e+002 -1.667850e+002 2.200000e+001
      vertex   -2.407321e+002 -1.667850e+002 2.200000e+001
      vertex   -2.897321e+002 -1.667850e+002 2.500000e+001
    endloop
  endfacet
  facet normal 0.000000e+000 -6.111006e-002 0.000000e+000
    outer loop
      vertex   -2.897321e+002 -1.667850e+002 2.500000e+001
      vertex   -2.407321e+002 -1.667850e+002 2.200000e+001
      vertex   -2.407321e+002 -1.667850e+002 2.500000e+001
    endloop
  endfacet
  facet normal 0.000000e+000 1.000000e+000 -0.000000e+000
    outer loop
      vertex   -2.407321e+002 4.721525e+001 2.200000e+001
      vertex   -2.897321e+002 4.721525e+001 2.200000e+001
      vertex   -2.407321e+002 4.721525e+001 2.500000e+001
    endloop
  endfacet
  facet normal 0.000000e+000 6.111006e-002 0.000000e+000
    outer loop
      vertex   -2.407321e+002 4.721525e+001 2.500000e+001
      vertex   -2.897321e+002 4.721525e+001 2.200000e+001
      vertex   -2.897321e+002 4.721525e+001 2.500000e+001
    endloop
  endfacet
  facet normal 1.000000e+000 0.000000e+000 0.000000e+000
    outer loop
      vertex   -2.407321e+002 -1.667850e+002 2.200000e+001
      vertex   -2.407321e+002 -1.132849e+002 2.200000e+001
      vertex   -2.407321e+002 -1.667850e+002 2.500000e+001
    endloop
  endfacet
  facet normal 5.598676e-002 -0.000000e+000 0.000000e+000
    outer loop
      vertex   -2.407321e+002 -1.667850e+002 2.500000e+001
      vertex   -2.407321e+002 -1.132849e+002 2.200000e+001
      vertex   -2.407321e+002 -1.132849e+002 2.500000e+001
    endloop
  endfacet
  facet normal 9.984315e-001 0.000000e+000 0.000000e+000
    outer loop
      vertex   -2.407321e+002 -1.132849e+002 2.500000e+001
      vertex   -2.407321e+002 -1.132849e+002 2.200000e+001
      vertex   -2.407321e+002 -5.978487e+001 2.200000e+001
    endloop
  endfacet
  facet normal 5.598675e-002 -0.000000e+000 0.000000e+000
    outer loop
      vertex   -2.407321e+002 -1.132849e+002 2.500000e+001
      vertex   -2.407321e+002 -5.978487e+001 2.200000e+001
      vertex   -2.407321e+002 -5.978487e+001 2.500000e+001
    endloop
  endfacet
  facet normal 9.984315e-001 0.000000e+000 0.000000e+000
    outer loop
      vertex   -2.407321e+002 -5.978487e+001 2.500000e+001
      vertex   -2.407321e+002 -5.978487e+001 2.200000e+001
      vertex   -2.407321e+002 -6.284813e+000 2.200000e+001
    endloop
  endfacet
  facet normal 5.598675e-002 -0.000000e+000 0.000000e+000
    outer loop
      vertex   -2.407321e+002 -5.978487e+001 2.500000e+001
      vertex   -2.407321e+002 -6.284813e+000 2.200000e+001
      vertex   -2.407321e+002 -6.284813e+000 2.500000e+001
    endloop
  endfacet
  facet normal 9.984315e-001 0.000000e+000 0.000000e+000
    outer loop
      vertex   -2.407321e+002 -6.284813e+000 2.500000e+001
      vertex   -2.407321e+002 -6.284813e+000 2.200000e+001
      vertex   -2.407321e+002 4.721525e+001 2.200000e+001
    endloop
  endfacet
  facet normal 5.598675e-002 -0.000000e+000 0.000000e+000
    outer loop
      vertex   -2.407321e+002 -6.284813e+000 2.500000e+001
      vertex   -2.407321e+002 4.721525e+001 2.200000e+001
      vertex   -2.407321e+002 4.721525e+001 2.500000e+001
    endloop
  endfacet
  facet normal -1.000000e+000 0.000000e+000 0.000000e+000
    outer loop
      vertex   -2.897321e+002 4.721525e+001 2.200000e+001
      vertex   -2.897321e+002 -6.284813e+000 2.200000e+001
      vertex   -2.897321e+002 4.721525e+001 2.500000e+001
    endloop
  endfacet
  facet normal -5.598675e-002 -0.000000e+000 0.000000e+000
    outer loop
      vertex   -2.897321e+002 4.721525e+001 2.500000e+001
      vertex   -2.897321e+002 -6.284813e+000 2.200000e+001
      vertex   -2.897321e+002 -6.284813e+000 2.500000e+001
    endloop
  endfacet
  facet normal -9.984315e-001 0.000000e+000 -0.000000e+000
    outer loop
      vertex   -2.897321e+002 -6.284813e+000 2.500000e+001
      vertex   -2.897321e+002 -6.284813e+000 2.200000e+001
      vertex   -2.897321e+002 -5.978487e+001 2.200000e+001
    endloop
  endfacet
  facet normal -5.598675e-002 -0.000000e+000 0.000000e+000
    outer loop
      vertex   -2.897321e+002 -6.284813e+000 2.500000e+001
      vertex   -2.897321e+002 -5.978487e+001 2.200000e+001
      vertex   -2.897321e+002 -5.978487e+001 2.500000e+001
    endloop
  endfacet
  facet normal -9.984315e-001 0.000000e+000 -0.000000e+000
    outer loop
      vertex   -2.897321e+002 -5.978487e+001 2.500000e+001
      vertex   -2.897321e+002 -5.978487e+001 2.200000e+001
      vertex   -2.897321e+002 -1.132849e+002 2.200000e+001
    endloop
  endfacet
  facet normal -5.598675e-002 -0.000000e+000 0.000000e+000
    outer loop
      vertex   -2.897321e+002 -5.978487e+001 2.500000e+001
      vertex   -2.897321e+002 -1.132849e+002 2.200000e+001
      vertex   -2.897321e+002 -1.132849e+002 2.500000e+001
    endloop
  endfacet
  facet normal -9.984315e-001 0.000000e+000 -0.000000e+000
    outer loop
      vertex   -2.897321e+002 -1.132849e+002 2.500000e+001
      vertex   -2.897321e+002 -1.132849e+002 2.200000e+001
      vertex   -2.897321e+002 -1.667850e+002 2.200000e+001
    endloop
  endfacet
  facet normal -5.598676e-002 -0.000000e+000 0.000000e+000
    outer loop
      vertex   -2.897321e+002 -1.132849e+002 2.500000e+001
      vertex   -2.897321e+002 -1.667850e+002 2.200000e+001
      vertex   -2.897321e+002 -1.667850e+002 2.500000e+001
    endloop
  endfacet
  facet normal -0.000000e+000 0.000000e+000 1.000000e+000
    outer loop
      vertex   -2.897321e+002 4.721525e+001 2.500000e+001
      vertex   -2.897321e+002 -6.284813e+000 2.500000e+001
      vertex   -2.407321e+002 4.721525e+001 2.500000e+001
    endloop
  endfacet
  facet normal 0.000000e+000 0.000000e+000 6.754121e-001
    outer loop
      vertex   -2.407321e+002 4.721525e+001 2.500000e+001
      vertex   -2.897321e+002 -6.284813e+000 2.500000e+001
      vertex   -2.407321e+002 -6.284813e+000 2.500000e+001
    endloop
  endfacet
  facet normal 0.000000e+000 0.000000e+000 7.374405e-001
    outer loop
      vertex   -2.407321e+002 -6.284813e+000 2.500000e+001
      vertex   -2.897321e+002 -6.284813e+000 2.500000e+001
      vertex   -2.897321e+002 -5.978487e+001 2.500000e+001
    endloop
  endfacet
  facet normal 0.000000e+000 0.000000e+000 6.754121e-001
    outer loop
      vertex   -2.407321e+002 -6.284813e+000 2.500000e+001
      vertex   -2.897321e+002 -5.978487e+001 2.500000e+001
      vertex   -2.407321e+002 -5.978487e+001 2.500000e+001
    endloop
  endfacet
  facet normal 0.000000e+000 0.000000e+000 7.374405e-001
    outer loop
      vertex   -2.407321e+002 -5.978487e+001 2.500000e+001
      vertex   -2.897321e+002 -5.978487e+001 2.500000e+001
      vertex   -2.897321e+002 -1.132849e+002 2.500000e+001
    endloop
  endfacet
  facet normal 0.000000e+000 0.000000e+000 6.754121e-001
    outer loop
      vertex   -2.407321e+002 -5.978487e+001 2.500000e+001
      vertex   -2.897321e+002 -1.132849e+002 2.500000e+001
      vertex   -2.407321e+002 -1.132849e+002 2.500000e+001
    endloop
  endfacet
  facet normal 0.000000e+000 0.000000e+000 1.000000e+000
    outer loop
      vertex   -2.407321e+002 -1.132849e+002 2.500000e+001
      vertex   -2.897321e+002 -1.132849e+002 2.500000e+001
      vertex   -2.407321e+002 -1.667850e+002 2.500000e+001
    endloop
  endfacet
  facet normal 0.000000e+000 0.000000e+000 7.374405e-001
    outer loop
      vertex   -2.407321e+002 -1.667850e+002 2.500000e+001
      vertex   -2.897321e+002 -1.132849e+002 2.500000e+001
      vertex   -2.897321e+002 -1.667850e+002 2.500000e+001
    endloop
  endfacet
  facet normal 0.000000e+000 0.000000e+000 -1.000000e+000
    outer loop
      vertex   -2.407321e+002 -1.667850e+002 2.200000e+001
      vertex   -2.897321e+002 -1.667850e+002 2.200000e+001
      vertex   -2.407321e+002 -1.132849e+002 2.200000e+001
    endloop
  endfacet
  facet normal -0.000000e+000 0.000000e+000 -7.374405e-001
    outer loop
      vertex   -2.407321e+002 -1.132849e+002 2.200000e+001
      vertex   -2.897321e+002 -1.667850e+002 2.200000e+001
      vertex   -2.897321e+002 -1.132849e+002 2.200000e+001
    endloop
  endfacet
  facet normal 0.000000e+000 0.000000e+000 -1.000000e+000
    outer loop
      vertex   -2.407321e+002 -1.132849e+002 2.200000e+001
      vertex   -2.897321e+002 -1.132849e+002 2.200000e+001
      vertex   -2.407321e+002 -5.978487e+001 2.200000e+001
    endloop
  endfacet
  facet normal -0.000000e+000 0.000000e+000 -7.374405e-001
    outer loop
      vertex   -2.407321e+002 -5.978487e+001 2.200000e+001
      vertex   -2.897321e+002 -1.132849e+002 2.200000e+001
      vertex   -2.897321e+002 -5.978487e+001 2.200000e+001
    endloop
  endfacet
  facet normal 0.000000e+000 0.000000e+000 -1.000000e+000
    outer loop
      vertex   -2.407321e+002 -5.978487e+001 2.200000e+001
      vertex   -2.897321e+002 -5.978487e+001 2.200000e+001
      vertex   -2.407321e+002 -6.284813e+000 2.200000e+001
    endloop
  endfacet
  facet normal -0.000000e+000 0.000000e+000 -7.374405e-001
    outer loop
      vertex   -2.407321e+002 -6.284813e+000 2.200000e+001
      vertex   -2.897321e+002 -5.978487e+001 2.200000e+001
      vertex   -2.897321e+002 -6.284813e+000 2.200000e+001
    endloop
  endfacet
  facet normal 0.000000e+000 0.000000e+000 -1.000000e+000
    outer loop
      vertex   -2.407321e+002 -6.284813e+000 2.200000e+001
      vertex   -2.897321e+002 -6.284813e+000 2.200000e+001
      vertex   -2.407321e+002 4.721525e+001 2.200000e+001
    endloop
  endfacet
  facet normal -0.000000e+000 0.000000e+000 -7.374405e-001
    outer loop
      vertex   -2.407321e+002 4.721525e+001 2.200000e+001
      vertex   -2.897321e+002 -6.284813e+000 2.200000e+001
      vertex   -2.897321e+002 4.721525e+001 2.200000e+001
    endloop
  endfacet
endsolid
