solid ascii
  facet normal 0.000000e+000 -0.000000e+000 1.000000e+000
    outer loop
      vertex   -2.941005e+002 3.933754e+002 3.000000e+000
      vertex   -2.941005e+002 4.193232e+002 3.000000e+000
      vertex   -2.944143e+002 3.933754e+002 3.000000e+000
    endloop
  endfacet
  facet normal 0.000000e+000 0.000000e+000 1.209425e-002
    outer loop
      vertex   -2.944143e+002 3.933754e+002 3.000000e+000
      vertex   -2.941005e+002 4.193232e+002 3.000000e+000
      vertex   -2.944143e+002 4.193232e+002 3.000000e+000
    endloop
  endfacet
  facet normal 0.000000e+000 -3.846154e-001 0.000000e+000
    outer loop
      vertex   -3.541005e+002 3.733232e+002 2.000000e+001
      vertex   -3.541005e+002 3.733232e+002 0.000000e+000
      vertex   -3.491005e+002 3.733232e+002 8.000000e+000
    endloop
  endfacet
  facet normal 0.000000e+000 -9.447753e-001 -0.000000e+000
    outer loop
      vertex   -3.491005e+002 3.733232e+002 8.000000e+000
      vertex   -3.541005e+002 3.733232e+002 0.000000e+000
      vertex   -3.141005e+002 3.733232e+002 0.000000e+000
    endloop
  endfacet
  facet normal 0.000000e+000 -2.228248e-001 0.000000e+000
    outer loop
      vertex   -3.491005e+002 3.733232e+002 8.000000e+000
      vertex   -3.141005e+002 3.733232e+002 0.000000e+000
      vertex   -2.991005e+002 3.733232e+002 8.000000e+000
    endloop
  endfacet
  facet normal 0.000000e+000 -7.171193e-001 -0.000000e+000
    outer loop
      vertex   -2.991005e+002 3.733232e+002 8.000000e+000
      vertex   -3.141005e+002 3.733232e+002 0.000000e+000
      vertex   -2.741005e+002 3.733232e+002 0.000000e+000
    endloop
  endfacet
  facet normal 0.000000e+000 -6.158041e-001 0.000000e+000
    outer loop
      vertex   -2.991005e+002 3.733232e+002 8.000000e+000
      vertex   -2.741005e+002 3.733232e+002 0.000000e+000
      vertex   -2.666005e+002 3.733232e+002 2.000000e+001
    endloop
  endfacet
  facet normal 0.000000e+000 -9.814554e-001 -0.000000e+000
    outer loop
      vertex   -2.666005e+002 3.733232e+002 2.000000e+001
      vertex   -2.741005e+002 3.733232e+002 0.000000e+000
      vertex   -2.341005e+002 3.733232e+002 0.000000e+000
    endloop
  endfacet
  facet normal 0.000000e+000 -5.240976e-001 0.000000e+000
    outer loop
      vertex   -2.666005e+002 3.733232e+002 2.000000e+001
      vertex   -2.341005e+002 3.733232e+002 0.000000e+000
      vertex   -2.341005e+002 3.733232e+002 2.000000e+001
    endloop
  endfacet
  facet normal -0.000000e+000 -3.463741e-001 0.000000e+000
    outer loop
      vertex   -2.666005e+002 3.733232e+002 2.000000e+001
      vertex   -2.991005e+002 3.733232e+002 2.000000e+001
      vertex   -2.991005e+002 3.733232e+002 8.000000e+000
    endloop
  endfacet
  facet normal 0.000000e+000 -3.846154e-001 0.000000e+000
    outer loop
      vertex   -3.491005e+002 3.733232e+002 8.000000e+000
      vertex   -3.491005e+002 3.733232e+002 2.000000e+001
      vertex   -3.541005e+002 3.733232e+002 2.000000e+001
    endloop
  endfacet
  facet normal 1.000000e+000 0.000000e+000 0.000000e+000
    outer loop
      vertex   -2.341005e+002 3.733232e+002 0.000000e+000
      vertex   -2.341005e+002 3.763232e+002 0.000000e+000
      vertex   -2.341005e+002 3.733232e+002 2.000000e+001
    endloop
  endfacet
  facet normal 9.889364e-001 -0.000000e+000 0.000000e+000
    outer loop
      vertex   -2.341005e+002 3.733232e+002 2.000000e+001
      vertex   -2.341005e+002 3.763232e+002 0.000000e+000
      vertex   -2.341005e+002 3.763232e+002 2.000000e+001
    endloop
  endfacet
  facet normal 7.071068e-001 7.071068e-001 -0.000000e+000
    outer loop
      vertex   -2.341005e+002 3.763232e+002 0.000000e+000
      vertex   -2.511005e+002 3.933232e+002 0.000000e+000
      vertex   -2.341005e+002 3.763232e+002 2.000000e+001
    endloop
  endfacet
  facet normal 4.522156e-001 4.522156e-001 0.000000e+000
    outer loop
      vertex   -2.341005e+002 3.763232e+002 2.000000e+001
      vertex   -2.511005e+002 3.933232e+002 0.000000e+000
      vertex   -2.511005e+002 3.933232e+002 2.000000e+001
    endloop
  endfacet
  facet normal -0.000000e+000 1.000000e+000 0.000000e+000
    outer loop
      vertex   -2.944143e+002 4.193232e+002 3.000000e+000
      vertex   -2.941005e+002 4.193232e+002 3.000000e+000
      vertex   -2.944143e+002 4.193232e+002 0.000000e+000
    endloop
  endfacet
  facet normal 0.000000e+000 9.945725e-001 0.000000e+000
    outer loop
      vertex   -2.944143e+002 4.193232e+002 0.000000e+000
      vertex   -2.941005e+002 4.193232e+002 3.000000e+000
      vertex   -2.941005e+002 4.193232e+002 0.000000e+000
    endloop
  endfacet
  facet normal -1.000000e+000 -0.000000e+000 -0.000000e+000
    outer loop
      vertex   -3.541005e+002 3.733754e+002 2.000000e+001
      vertex   -3.541005e+002 3.733754e+002 0.000000e+000
      vertex   -3.541005e+002 3.733232e+002 2.000000e+001
    endloop
  endfacet
  facet normal -2.607718e-003 0.000000e+000 0.000000e+000
    outer loop
      vertex   -3.541005e+002 3.733232e+002 2.000000e+001
      vertex   -3.541005e+002 3.733754e+002 0.000000e+000
      vertex   -3.541005e+002 3.733232e+002 0.000000e+000
    endloop
  endfacet
  facet normal 0.000000e+000 1.000000e+000 0.000000e+000
    outer loop
      vertex   -2.513622e+002 3.933232e+002 0.000000e+000
      vertex   -2.513622e+002 3.933232e+002 2.000000e+001
      vertex   -2.511005e+002 3.933232e+002 0.000000e+000
    endloop
  endfacet
  facet normal 0.000000e+000 1.308253e-002 -0.000000e+000
    outer loop
      vertex   -2.511005e+002 3.933232e+002 0.000000e+000
      vertex   -2.513622e+002 3.933232e+002 2.000000e+001
      vertex   -2.511005e+002 3.933232e+002 2.000000e+001
    endloop
  endfacet
  facet normal 1.000000e+000 0.000000e+000 0.000000e+000
    outer loop
      vertex   -2.941005e+002 3.933754e+002 0.000000e+000
      vertex   -2.941005e+002 4.193232e+002 0.000000e+000
      vertex   -2.941005e+002 3.933754e+002 3.000000e+000
    endloop
  endfacet
  facet normal 1.148515e-001 -0.000000e+000 0.000000e+000
    outer loop
      vertex   -2.941005e+002 3.933754e+002 3.000000e+000
      vertex   -2.941005e+002 4.193232e+002 0.000000e+000
      vertex   -2.941005e+002 4.193232e+002 3.000000e+000
    endloop
  endfacet
  facet normal -0.000000e+000 -1.000000e+000 -0.000000e+000
    outer loop
      vertex   -2.991005e+002 3.733754e+002 2.000000e+001
      vertex   -3.491005e+002 3.733754e+002 2.000000e+001
      vertex   -2.991005e+002 3.733754e+002 8.000000e+000
    endloop
  endfacet
  facet normal 0.000000e+000 -2.333730e-001 0.000000e+000
    outer loop
      vertex   -2.991005e+002 3.733754e+002 8.000000e+000
      vertex   -3.491005e+002 3.733754e+002 2.000000e+001
      vertex   -3.491005e+002 3.733754e+002 8.000000e+000
    endloop
  endfacet
  facet normal 0.000000e+000 1.000000e+000 -0.000000e+000
    outer loop
      vertex   -2.944143e+002 4.193754e+002 0.000000e+000
      vertex   -3.244143e+002 4.193754e+002 0.000000e+000
      vertex   -2.944143e+002 4.193754e+002 2.000000e+001
    endloop
  endfacet
  facet normal 0.000000e+000 5.547002e-001 0.000000e+000
    outer loop
      vertex   -2.944143e+002 4.193754e+002 2.000000e+001
      vertex   -3.244143e+002 4.193754e+002 0.000000e+000
      vertex   -3.244143e+002 4.193754e+002 2.000000e+001
    endloop
  endfacet
  facet normal 0.000000e+000 8.320503e-001 0.000000e+000
    outer loop
      vertex   -3.244143e+002 4.193754e+002 2.000000e+001
      vertex   -3.244143e+002 4.193754e+002 0.000000e+000
      vertex   -3.544143e+002 4.193754e+002 0.000000e+000
    endloop
  endfacet
  facet normal 0.000000e+000 5.547002e-001 0.000000e+000
    outer loop
      vertex   -3.244143e+002 4.193754e+002 2.000000e+001
      vertex   -3.544143e+002 4.193754e+002 0.000000e+000
      vertex   -3.544143e+002 4.193754e+002 2.000000e+001
    endloop
  endfacet
  facet normal -1.000000e+000 0.000000e+000 0.000000e+000
    outer loop
      vertex   -3.544143e+002 4.193754e+002 0.000000e+000
      vertex   -3.544143e+002 3.733754e+002 0.000000e+000
      vertex   -3.544143e+002 4.193754e+002 2.000000e+001
    endloop
  endfacet
  facet normal -3.987261e-001 -0.000000e+000 0.000000e+000
    outer loop
      vertex   -3.544143e+002 4.193754e+002 2.000000e+001
      vertex   -3.544143e+002 3.733754e+002 0.000000e+000
      vertex   -3.544143e+002 3.733754e+002 2.000000e+001
    endloop
  endfacet
  facet normal 1.000000e+000 0.000000e+000 0.000000e+000
    outer loop
      vertex   -2.944143e+002 3.933754e+002 3.000000e+000
      vertex   -2.944143e+002 4.193232e+002 3.000000e+000
      vertex   -2.944143e+002 3.933754e+002 2.000000e+001
    endloop
  endfacet
  facet normal 5.480192e-001 -0.000000e+000 0.000000e+000
    outer loop
      vertex   -2.944143e+002 3.933754e+002 2.000000e+001
      vertex   -2.944143e+002 4.193232e+002 3.000000e+000
      vertex   -2.944143e+002 4.193754e+002 2.000000e+001
    endloop
  endfacet
  facet normal 3.067900e-003 0.000000e+000 0.000000e+000
    outer loop
      vertex   -2.944143e+002 4.193754e+002 2.000000e+001
      vertex   -2.944143e+002 4.193232e+002 3.000000e+000
      vertex   -2.944143e+002 4.193754e+002 0.000000e+000
    endloop
  endfacet
  facet normal 9.998489e-001 0.000000e+000 0.000000e+000
    outer loop
      vertex   -2.944143e+002 4.193754e+002 0.000000e+000
      vertex   -2.944143e+002 4.193232e+002 3.000000e+000
      vertex   -2.944143e+002 4.193232e+002 0.000000e+000
    endloop
  endfacet
  facet normal 0.000000e+000 1.000000e+000 0.000000e+000
    outer loop
      vertex   -2.941005e+002 3.933754e+002 0.000000e+000
      vertex   -2.941005e+002 3.933754e+002 3.000000e+000
      vertex   -2.514143e+002 3.933754e+002 0.000000e+000
    endloop
  endfacet
  facet normal 0.000000e+000 9.975395e-001 -0.000000e+000
    outer loop
      vertex   -2.514143e+002 3.933754e+002 0.000000e+000
      vertex   -2.941005e+002 3.933754e+002 3.000000e+000
      vertex   -2.514143e+002 3.933754e+002 2.000000e+001
    endloop
  endfacet
  facet normal 0.000000e+000 3.699932e-001 0.000000e+000
    outer loop
      vertex   -2.514143e+002 3.933754e+002 2.000000e+001
      vertex   -2.941005e+002 3.933754e+002 3.000000e+000
      vertex   -2.944143e+002 3.933754e+002 2.000000e+001
    endloop
  endfacet
  facet normal 0.000000e+000 1.845820e-002 0.000000e+000
    outer loop
      vertex   -2.944143e+002 3.933754e+002 2.000000e+001
      vertex   -2.941005e+002 3.933754e+002 3.000000e+000
      vertex   -2.944143e+002 3.933754e+002 3.000000e+000
    endloop
  endfacet
  facet normal 7.071068e-001 7.071068e-001 -0.000000e+000
    outer loop
      vertex   -2.513622e+002 3.933232e+002 0.000000e+000
      vertex   -2.514143e+002 3.933754e+002 0.000000e+000
      vertex   -2.513622e+002 3.933232e+002 2.000000e+001
    endloop
  endfacet
  facet normal 7.071020e-001 7.071020e-001 0.000000e+000
    outer loop
      vertex   -2.513622e+002 3.933232e+002 2.000000e+001
      vertex   -2.514143e+002 3.933754e+002 0.000000e+000
      vertex   -2.514143e+002 3.933754e+002 2.000000e+001
    endloop
  endfacet
  facet normal 0.000000e+000 -1.000000e+000 0.000000e+000
    outer loop
      vertex   -3.541005e+002 3.733754e+002 0.000000e+000
      vertex   -3.541005e+002 3.733754e+002 2.000000e+001
      vertex   -3.544143e+002 3.733754e+002 0.000000e+000
    endloop
  endfacet
  facet normal 0.000000e+000 -1.569021e-002 0.000000e+000
    outer loop
      vertex   -3.544143e+002 3.733754e+002 0.000000e+000
      vertex   -3.541005e+002 3.733754e+002 2.000000e+001
      vertex   -3.544143e+002 3.733754e+002 2.000000e+001
    endloop
  endfacet
  facet normal 1.000000e+000 -0.000000e+000 0.000000e+000
    outer loop
      vertex   -3.491005e+002 3.733232e+002 2.000000e+001
      vertex   -3.491005e+002 3.733232e+002 8.000000e+000
      vertex   -3.491005e+002 3.733754e+002 2.000000e+001
    endloop
  endfacet
  facet normal 4.346171e-003 0.000000e+000 0.000000e+000
    outer loop
      vertex   -3.491005e+002 3.733754e+002 2.000000e+001
      vertex   -3.491005e+002 3.733232e+002 8.000000e+000
      vertex   -3.491005e+002 3.733754e+002 8.000000e+000
    endloop
  endfacet
  facet normal 0.000000e+000 -0.000000e+000 1.000000e+000
    outer loop
      vertex   -2.991005e+002 3.733232e+002 8.000000e+000
      vertex   -2.991005e+002 3.733754e+002 8.000000e+000
      vertex   -3.491005e+002 3.733232e+002 8.000000e+000
    endloop
  endfacet
  facet normal 0.000000e+000 0.000000e+000 9.999995e-001
    outer loop
      vertex   -3.491005e+002 3.733232e+002 8.000000e+000
      vertex   -2.991005e+002 3.733754e+002 8.000000e+000
      vertex   -3.491005e+002 3.733754e+002 8.000000e+000
    endloop
  endfacet
  facet normal 0.000000e+000 0.000000e+000 -6.604471e-001
    outer loop
      vertex   -2.741005e+002 3.733232e+002 0.000000e+000
      vertex   -2.513622e+002 3.933232e+002 0.000000e+000
      vertex   -2.341005e+002 3.733232e+002 0.000000e+000
    endloop
  endfacet
  facet normal 0.000000e+000 0.000000e+000 -7.546791e-003
    outer loop
      vertex   -2.341005e+002 3.733232e+002 0.000000e+000
      vertex   -2.513622e+002 3.933232e+002 0.000000e+000
      vertex   -2.511005e+002 3.933232e+002 0.000000e+000
    endloop
  endfacet
  facet normal 0.000000e+000 0.000000e+000 -6.476484e-001
    outer loop
      vertex   -2.341005e+002 3.733232e+002 0.000000e+000
      vertex   -2.511005e+002 3.933232e+002 0.000000e+000
      vertex   -2.341005e+002 3.763232e+002 0.000000e+000
    endloop
  endfacet
  facet normal 0.000000e+000 0.000000e+000 -7.080269e-001
    outer loop
      vertex   -3.141005e+002 3.733232e+002 0.000000e+000
      vertex   -2.941005e+002 3.933754e+002 0.000000e+000
      vertex   -2.741005e+002 3.733232e+002 0.000000e+000
    endloop
  endfacet
  facet normal 0.000000e+000 0.000000e+000 -9.981855e-001
    outer loop
      vertex   -2.741005e+002 3.733232e+002 0.000000e+000
      vertex   -2.941005e+002 3.933754e+002 0.000000e+000
      vertex   -2.514143e+002 3.933754e+002 0.000000e+000
    endloop
  endfacet
  facet normal 0.000000e+000 0.000000e+000 -2.431039e-003
    outer loop
      vertex   -2.741005e+002 3.733232e+002 0.000000e+000
      vertex   -2.514143e+002 3.933754e+002 0.000000e+000
      vertex   -2.513622e+002 3.933232e+002 0.000000e+000
    endloop
  endfacet
  facet normal 0.000000e+000 0.000000e+000 -1.000000e+000
    outer loop
      vertex   -3.541005e+002 3.733232e+002 0.000000e+000
      vertex   -3.541005e+002 3.733754e+002 0.000000e+000
      vertex   -3.141005e+002 3.733232e+002 0.000000e+000
    endloop
  endfacet
  facet normal 0.000000e+000 0.000000e+000 -9.755408e-001
    outer loop
      vertex   -3.141005e+002 3.733232e+002 0.000000e+000
      vertex   -3.541005e+002 3.733754e+002 0.000000e+000
      vertex   -3.244143e+002 4.193754e+002 0.000000e+000
    endloop
  endfacet
  facet normal 0.000000e+000 0.000000e+000 -8.438511e-001
    outer loop
      vertex   -3.141005e+002 3.733232e+002 0.000000e+000
      vertex   -3.244143e+002 4.193754e+002 0.000000e+000
      vertex   -2.941005e+002 3.933754e+002 0.000000e+000
    endloop
  endfacet
  facet normal 0.000000e+000 0.000000e+000 -7.511206e-001
    outer loop
      vertex   -2.941005e+002 3.933754e+002 0.000000e+000
      vertex   -3.244143e+002 4.193754e+002 0.000000e+000
      vertex   -2.944143e+002 4.193232e+002 0.000000e+000
    endloop
  endfacet
  facet normal 0.000000e+000 0.000000e+000 -1.209425e-002
    outer loop
      vertex   -2.941005e+002 3.933754e+002 0.000000e+000
      vertex   -2.944143e+002 4.193232e+002 0.000000e+000
      vertex   -2.941005e+002 4.193232e+002 0.000000e+000
    endloop
  endfacet
  facet normal 0.000000e+000 0.000000e+000 -1.000000e+000
    outer loop
      vertex   -3.544143e+002 3.733754e+002 0.000000e+000
      vertex   -3.544143e+002 4.193754e+002 0.000000e+000
      vertex   -3.541005e+002 3.733754e+002 0.000000e+000
    endloop
  endfacet
  facet normal 0.000000e+000 0.000000e+000 -5.479594e-001
    outer loop
      vertex   -3.541005e+002 3.733754e+002 0.000000e+000
      vertex   -3.544143e+002 4.193754e+002 0.000000e+000
      vertex   -3.244143e+002 4.193754e+002 0.000000e+000
    endloop
  endfacet
  facet normal 0.000000e+000 0.000000e+000 -1.738482e-003
    outer loop
      vertex   -3.244143e+002 4.193754e+002 0.000000e+000
      vertex   -2.944143e+002 4.193754e+002 0.000000e+000
      vertex   -2.944143e+002 4.193232e+002 0.000000e+000
    endloop
  endfacet
  facet normal 0.000000e+000 0.000000e+000 1.000000e+000
    outer loop
      vertex   -2.991005e+002 3.733232e+002 2.000000e+001
      vertex   -2.666005e+002 3.733232e+002 2.000000e+001
      vertex   -2.991005e+002 3.733754e+002 2.000000e+001
    endloop
  endfacet
  facet normal -0.000000e+000 0.000000e+000 9.739957e-001
    outer loop
      vertex   -2.991005e+002 3.733754e+002 2.000000e+001
      vertex   -2.666005e+002 3.733232e+002 2.000000e+001
      vertex   -2.944143e+002 3.933754e+002 2.000000e+001
    endloop
  endfacet
  facet normal 0.000000e+000 -0.000000e+000 6.692732e-001
    outer loop
      vertex   -2.991005e+002 3.733754e+002 2.000000e+001
      vertex   -2.944143e+002 3.933754e+002 2.000000e+001
      vertex   -3.244143e+002 4.193754e+002 2.000000e+001
    endloop
  endfacet
  facet normal -0.000000e+000 0.000000e+000 6.549305e-001
    outer loop
      vertex   -3.244143e+002 4.193754e+002 2.000000e+001
      vertex   -2.944143e+002 3.933754e+002 2.000000e+001
      vertex   -2.944143e+002 4.193754e+002 2.000000e+001
    endloop
  endfacet
  facet normal 0.000000e+000 0.000000e+000 7.619393e-001
    outer loop
      vertex   -2.341005e+002 3.733232e+002 2.000000e+001
      vertex   -2.511005e+002 3.933232e+002 2.000000e+001
      vertex   -2.666005e+002 3.733232e+002 2.000000e+001
    endloop
  endfacet
  facet normal 0.000000e+000 0.000000e+000 8.225927e-003
    outer loop
      vertex   -2.666005e+002 3.733232e+002 2.000000e+001
      vertex   -2.511005e+002 3.933232e+002 2.000000e+001
      vertex   -2.513622e+002 3.933232e+002 2.000000e+001
    endloop
  endfacet
  facet normal 0.000000e+000 0.000000e+000 2.905870e-003
    outer loop
      vertex   -2.666005e+002 3.733232e+002 2.000000e+001
      vertex   -2.513622e+002 3.933232e+002 2.000000e+001
      vertex   -2.514143e+002 3.933754e+002 2.000000e+001
    endloop
  endfacet
  facet normal 0.000000e+000 -0.000000e+000 6.476484e-001
    outer loop
      vertex   -2.341005e+002 3.733232e+002 2.000000e+001
      vertex   -2.341005e+002 3.763232e+002 2.000000e+001
      vertex   -2.511005e+002 3.933232e+002 2.000000e+001
    endloop
  endfacet
  facet normal 0.000000e+000 0.000000e+000 7.971853e-001
    outer loop
      vertex   -2.514143e+002 3.933754e+002 2.000000e+001
      vertex   -2.944143e+002 3.933754e+002 2.000000e+001
      vertex   -2.666005e+002 3.733232e+002 2.000000e+001
    endloop
  endfacet
  facet normal 0.000000e+000 0.000000e+000 8.761045e-001
    outer loop
      vertex   -2.991005e+002 3.733754e+002 2.000000e+001
      vertex   -3.244143e+002 4.193754e+002 2.000000e+001
      vertex   -3.491005e+002 3.733754e+002 2.000000e+001
    endloop
  endfacet
  facet normal 0.000000e+000 -0.000000e+000 5.708566e-001
    outer loop
      vertex   -3.491005e+002 3.733754e+002 2.000000e+001
      vertex   -3.244143e+002 4.193754e+002 2.000000e+001
      vertex   -3.544143e+002 4.193754e+002 2.000000e+001
    endloop
  endfacet
  facet normal 0.000000e+000 0.000000e+000 9.933938e-001
    outer loop
      vertex   -3.491005e+002 3.733754e+002 2.000000e+001
      vertex   -3.544143e+002 4.193754e+002 2.000000e+001
      vertex   -3.541005e+002 3.733754e+002 2.000000e+001
    endloop
  endfacet
  facet normal 0.000000e+000 0.000000e+000 9.999768e-001
    outer loop
      vertex   -3.541005e+002 3.733754e+002 2.000000e+001
      vertex   -3.544143e+002 4.193754e+002 2.000000e+001
      vertex   -3.544143e+002 3.733754e+002 2.000000e+001
    endloop
  endfacet
  facet normal 0.000000e+000 0.000000e+000 1.000000e+000
    outer loop
      vertex   -3.541005e+002 3.733232e+002 2.000000e+001
      vertex   -3.491005e+002 3.733232e+002 2.000000e+001
      vertex   -3.541005e+002 3.733754e+002 2.000000e+001
    endloop
  endfacet
  facet normal -0.000000e+000 0.000000e+000 1.043034e-002
    outer loop
      vertex   -3.541005e+002 3.733754e+002 2.000000e+001
      vertex   -3.491005e+002 3.733232e+002 2.000000e+001
      vertex   -3.491005e+002 3.733754e+002 2.000000e+001
    endloop
  endfacet
  facet normal -1.000000e+000 0.000000e+000 0.000000e+000
    outer loop
      vertex   -2.991005e+002 3.733232e+002 8.000000e+000
      vertex   -2.991005e+002 3.733232e+002 2.000000e+001
      vertex   -2.991005e+002 3.733754e+002 8.000000e+000
    endloop
  endfacet
  facet normal -4.346171e-003 0.000000e+000 0.000000e+000
    outer loop
      vertex   -2.991005e+002 3.733754e+002 8.000000e+000
      vertex   -2.991005e+002 3.733232e+002 2.000000e+001
      vertex   -2.991005e+002 3.733754e+002 2.000000e+001
    endloop
  endfacet
endsolid
