solid ascii
  facet normal 0.000000e+000 -0.000000e+000 7.071068e-001
    outer loop
      vertex   -3.078678e+002 5.929884e+001 2.000000e+001
      vertex   -3.078678e+002 6.121320e+001 2.000000e+001
      vertex   -3.248678e+002 4.229884e+001 2.000000e+001
    endloop
  endfacet
  facet normal 0.000000e+000 -0.000000e+000 9.990358e-001
    outer loop
      vertex   -3.248678e+002 4.229884e+001 2.000000e+001
      vertex   -3.078678e+002 6.121320e+001 2.000000e+001
      vertex   -3.478678e+002 6.121320e+001 2.000000e+001
    endloop
  endfacet
  facet normal 0.000000e+000 0.000000e+000 6.351705e-001
    outer loop
      vertex   -3.248678e+002 4.229884e+001 2.000000e+001
      vertex   -3.478678e+002 6.121320e+001 2.000000e+001
      vertex   -3.678678e+002 4.229884e+001 2.000000e+001
    endloop
  endfacet
  facet normal 0.000000e+000 -0.000000e+000 9.984446e-001
    outer loop
      vertex   -3.678678e+002 4.229884e+001 2.000000e+001
      vertex   -3.478678e+002 6.121320e+001 2.000000e+001
      vertex   -3.878678e+002 6.121320e+001 2.000000e+001
    endloop
  endfacet
  facet normal 0.000000e+000 0.000000e+000 9.892642e-001
    outer loop
      vertex   -3.678678e+002 4.229884e+001 2.000000e+001
      vertex   -3.878678e+002 6.121320e+001 2.000000e+001
      vertex   -3.878678e+002 1.373461e+001 2.000000e+001
    endloop
  endfacet
  facet normal 0.000000e+000 -0.000000e+000 1.000000e+000
    outer loop
      vertex   -3.878678e+002 1.373461e+001 2.000000e+001
      vertex   -3.878678e+002 6.121320e+001 2.000000e+001
      vertex   -4.278678e+002 1.373461e+001 2.000000e+001
    endloop
  endfacet
  facet normal 0.000000e+000 0.000000e+000 9.785311e-001
    outer loop
      vertex   -3.878678e+002 1.373461e+001 2.000000e+001
      vertex   -4.278678e+002 1.373461e+001 2.000000e+001
      vertex   -3.978678e+002 -3.374398e+001 2.000000e+001
    endloop
  endfacet
  facet normal 0.000000e+000 0.000000e+000 8.453802e-001
    outer loop
      vertex   -3.978678e+002 -3.374398e+001 2.000000e+001
      vertex   -4.278678e+002 1.373461e+001 2.000000e+001
      vertex   -4.278678e+002 -3.374398e+001 2.000000e+001
    endloop
  endfacet
  facet normal 0.000000e+000 0.000000e+000 7.647681e-001
    outer loop
      vertex   -3.878678e+002 6.121320e+001 2.000000e+001
      vertex   -4.278678e+002 6.121320e+001 2.000000e+001
      vertex   -4.278678e+002 1.373461e+001 2.000000e+001
    endloop
  endfacet
  facet normal 0.000000e+000 -0.000000e+000 1.000000e+000
    outer loop
      vertex   -3.678678e+002 -3.374398e+001 2.000000e+001
      vertex   -3.678678e+002 4.277433e+000 2.000000e+001
      vertex   -3.978678e+002 -3.374398e+001 2.000000e+001
    endloop
  endfacet
  facet normal 0.000000e+000 0.000000e+000 4.443319e-001
    outer loop
      vertex   -3.978678e+002 -3.374398e+001 2.000000e+001
      vertex   -3.678678e+002 4.277433e+000 2.000000e+001
      vertex   -3.878678e+002 1.373461e+001 2.000000e+001
    endloop
  endfacet
  facet normal 0.000000e+000 -0.000000e+000 9.040263e-001
    outer loop
      vertex   -3.678678e+002 4.277433e+000 2.000000e+001
      vertex   -3.678678e+002 4.229884e+001 2.000000e+001
      vertex   -3.878678e+002 1.373461e+001 2.000000e+001
    endloop
  endfacet
  facet normal 7.071068e-001 -7.071068e-001 0.000000e+000
    outer loop
      vertex   -3.078678e+002 5.929884e+001 2.000000e+001
      vertex   -3.248678e+002 4.229884e+001 2.000000e+001
      vertex   -3.078678e+002 5.929884e+001 0.000000e+000
    endloop
  endfacet
  facet normal 4.522156e-001 -4.522156e-001 0.000000e+000
    outer loop
      vertex   -3.078678e+002 5.929884e+001 0.000000e+000
      vertex   -3.248678e+002 4.229884e+001 2.000000e+001
      vertex   -3.248678e+002 4.229884e+001 0.000000e+000
    endloop
  endfacet
  facet normal 1.000000e+000 0.000000e+000 0.000000e+000
    outer loop
      vertex   -3.078678e+002 6.121320e+001 2.000000e+001
      vertex   -3.078678e+002 5.929884e+001 2.000000e+001
      vertex   -3.078678e+002 6.121320e+001 0.000000e+000
    endloop
  endfacet
  facet normal 9.954503e-001 0.000000e+000 0.000000e+000
    outer loop
      vertex   -3.078678e+002 6.121320e+001 0.000000e+000
      vertex   -3.078678e+002 5.929884e+001 2.000000e+001
      vertex   -3.078678e+002 5.929884e+001 0.000000e+000
    endloop
  endfacet
  facet normal -0.000000e+000 1.000000e+000 0.000000e+000
    outer loop
      vertex   -4.278678e+002 6.121320e+001 2.000000e+001
      vertex   -3.878678e+002 6.121320e+001 2.000000e+001
      vertex   -4.278678e+002 6.121320e+001 0.000000e+000
    endloop
  endfacet
  facet normal 0.000000e+000 4.472136e-001 0.000000e+000
    outer loop
      vertex   -4.278678e+002 6.121320e+001 0.000000e+000
      vertex   -3.878678e+002 6.121320e+001 2.000000e+001
      vertex   -3.878678e+002 6.121320e+001 0.000000e+000
    endloop
  endfacet
  facet normal 0.000000e+000 8.944272e-001 0.000000e+000
    outer loop
      vertex   -3.878678e+002 6.121320e+001 0.000000e+000
      vertex   -3.878678e+002 6.121320e+001 2.000000e+001
      vertex   -3.478678e+002 6.121320e+001 2.000000e+001
    endloop
  endfacet
  facet normal 0.000000e+000 4.472136e-001 0.000000e+000
    outer loop
      vertex   -3.878678e+002 6.121320e+001 0.000000e+000
      vertex   -3.478678e+002 6.121320e+001 2.000000e+001
      vertex   -3.478678e+002 6.121320e+001 0.000000e+000
    endloop
  endfacet
  facet normal 0.000000e+000 8.944272e-001 0.000000e+000
    outer loop
      vertex   -3.478678e+002 6.121320e+001 0.000000e+000
      vertex   -3.478678e+002 6.121320e+001 2.000000e+001
      vertex   -3.078678e+002 6.121320e+001 2.000000e+001
    endloop
  endfacet
  facet normal 0.000000e+000 4.472136e-001 0.000000e+000
    outer loop
      vertex   -3.478678e+002 6.121320e+001 0.000000e+000
      vertex   -3.078678e+002 6.121320e+001 2.000000e+001
      vertex   -3.078678e+002 6.121320e+001 0.000000e+000
    endloop
  endfacet
  facet normal -0.000000e+000 -1.000000e+000 -0.000000e+000
    outer loop
      vertex   -3.248678e+002 4.229884e+001 2.000000e+001
      vertex   -3.678678e+002 4.229884e+001 2.000000e+001
      vertex   -3.248678e+002 4.229884e+001 0.000000e+000
    endloop
  endfacet
  facet normal 0.000000e+000 -4.217308e-001 0.000000e+000
    outer loop
      vertex   -3.248678e+002 4.229884e+001 0.000000e+000
      vertex   -3.678678e+002 4.229884e+001 2.000000e+001
      vertex   -3.678678e+002 4.229884e+001 0.000000e+000
    endloop
  endfacet
  facet normal 1.000000e+000 0.000000e+000 0.000000e+000
    outer loop
      vertex   -3.678678e+002 4.229884e+001 2.000000e+001
      vertex   -3.678678e+002 4.277433e+000 2.000000e+001
      vertex   -3.678678e+002 4.229884e+001 0.000000e+000
    endloop
  endfacet
  facet normal 4.655410e-001 0.000000e+000 0.000000e+000
    outer loop
      vertex   -3.678678e+002 4.229884e+001 0.000000e+000
      vertex   -3.678678e+002 4.277433e+000 2.000000e+001
      vertex   -3.678678e+002 4.277433e+000 0.000000e+000
    endloop
  endfacet
  facet normal 8.850263e-001 0.000000e+000 -0.000000e+000
    outer loop
      vertex   -3.678678e+002 4.277433e+000 0.000000e+000
      vertex   -3.678678e+002 4.277433e+000 2.000000e+001
      vertex   -3.678678e+002 -3.374398e+001 2.000000e+001
    endloop
  endfacet
  facet normal 4.655410e-001 0.000000e+000 0.000000e+000
    outer loop
      vertex   -3.678678e+002 4.277433e+000 0.000000e+000
      vertex   -3.678678e+002 -3.374398e+001 2.000000e+001
      vertex   -3.678678e+002 -3.374398e+001 0.000000e+000
    endloop
  endfacet
  facet normal -0.000000e+000 -1.000000e+000 -0.000000e+000
    outer loop
      vertex   -3.678678e+002 -3.374398e+001 2.000000e+001
      vertex   -3.978678e+002 -3.374398e+001 2.000000e+001
      vertex   -3.678678e+002 -3.374398e+001 0.000000e+000
    endloop
  endfacet
  facet normal 0.000000e+000 -5.547002e-001 0.000000e+000
    outer loop
      vertex   -3.678678e+002 -3.374398e+001 0.000000e+000
      vertex   -3.978678e+002 -3.374398e+001 2.000000e+001
      vertex   -3.978678e+002 -3.374398e+001 0.000000e+000
    endloop
  endfacet
  facet normal 0.000000e+000 -8.320503e-001 0.000000e+000
    outer loop
      vertex   -3.978678e+002 -3.374398e+001 0.000000e+000
      vertex   -3.978678e+002 -3.374398e+001 2.000000e+001
      vertex   -4.278678e+002 -3.374398e+001 2.000000e+001
    endloop
  endfacet
  facet normal 0.000000e+000 -5.547002e-001 0.000000e+000
    outer loop
      vertex   -3.978678e+002 -3.374398e+001 0.000000e+000
      vertex   -4.278678e+002 -3.374398e+001 2.000000e+001
      vertex   -4.278678e+002 -3.374398e+001 0.000000e+000
    endloop
  endfacet
  facet normal 0.000000e+000 0.000000e+000 -1.000000e+000
    outer loop
      vertex   -4.278678e+002 6.121320e+001 0.000000e+000
      vertex   -3.878678e+002 6.121320e+001 0.000000e+000
      vertex   -4.278678e+002 1.373461e+001 0.000000e+000
    endloop
  endfacet
  facet normal 0.000000e+000 0.000000e+000 -7.647681e-001
    outer loop
      vertex   -4.278678e+002 1.373461e+001 0.000000e+000
      vertex   -3.878678e+002 6.121320e+001 0.000000e+000
      vertex   -3.878678e+002 1.373461e+001 0.000000e+000
    endloop
  endfacet
  facet normal 0.000000e+000 0.000000e+000 -8.453802e-001
    outer loop
      vertex   -4.278678e+002 1.373461e+001 0.000000e+000
      vertex   -3.878678e+002 1.373461e+001 0.000000e+000
      vertex   -3.978678e+002 -3.374398e+001 0.000000e+000
    endloop
  endfacet
  facet normal 0.000000e+000 0.000000e+000 -4.443319e-001
    outer loop
      vertex   -3.978678e+002 -3.374398e+001 0.000000e+000
      vertex   -3.878678e+002 1.373461e+001 0.000000e+000
      vertex   -3.678678e+002 4.277433e+000 0.000000e+000
    endloop
  endfacet
  facet normal 0.000000e+000 0.000000e+000 -7.850525e-001
    outer loop
      vertex   -3.978678e+002 -3.374398e+001 0.000000e+000
      vertex   -3.678678e+002 4.277433e+000 0.000000e+000
      vertex   -3.678678e+002 -3.374398e+001 0.000000e+000
    endloop
  endfacet
  facet normal 0.000000e+000 0.000000e+000 -5.735593e-001
    outer loop
      vertex   -3.878678e+002 1.373461e+001 0.000000e+000
      vertex   -3.878678e+002 6.121320e+001 0.000000e+000
      vertex   -3.678678e+002 4.229884e+001 0.000000e+000
    endloop
  endfacet
  facet normal 0.000000e+000 0.000000e+000 -9.984446e-001
    outer loop
      vertex   -3.678678e+002 4.229884e+001 0.000000e+000
      vertex   -3.878678e+002 6.121320e+001 0.000000e+000
      vertex   -3.478678e+002 6.121320e+001 0.000000e+000
    endloop
  endfacet
  facet normal 0.000000e+000 0.000000e+000 -6.871125e-001
    outer loop
      vertex   -3.678678e+002 4.229884e+001 0.000000e+000
      vertex   -3.478678e+002 6.121320e+001 0.000000e+000
      vertex   -3.248678e+002 4.229884e+001 0.000000e+000
    endloop
  endfacet
  facet normal 0.000000e+000 0.000000e+000 -9.990358e-001
    outer loop
      vertex   -3.248678e+002 4.229884e+001 0.000000e+000
      vertex   -3.478678e+002 6.121320e+001 0.000000e+000
      vertex   -3.078678e+002 6.121320e+001 0.000000e+000
    endloop
  endfacet
  facet normal 0.000000e+000 0.000000e+000 -5.322791e-002
    outer loop
      vertex   -3.248678e+002 4.229884e+001 0.000000e+000
      vertex   -3.078678e+002 6.121320e+001 0.000000e+000
      vertex   -3.078678e+002 5.929884e+001 0.000000e+000
    endloop
  endfacet
  facet normal 0.000000e+000 -0.000000e+000 -5.735593e-001
    outer loop
      vertex   -3.678678e+002 4.229884e+001 0.000000e+000
      vertex   -3.678678e+002 4.277433e+000 0.000000e+000
      vertex   -3.878678e+002 1.373461e+001 0.000000e+000
    endloop
  endfacet
  facet normal 0.000000e+000 0.000000e+000 -8.453802e-001
    outer loop
      vertex   -3.978678e+002 -3.374398e+001 0.000000e+000
      vertex   -4.278678e+002 -3.374398e+001 0.000000e+000
      vertex   -4.278678e+002 1.373461e+001 0.000000e+000
    endloop
  endfacet
  facet normal -1.000000e+000 0.000000e+000 0.000000e+000
    outer loop
      vertex   -4.278678e+002 6.121320e+001 0.000000e+000
      vertex   -4.278678e+002 1.373461e+001 0.000000e+000
      vertex   -4.278678e+002 6.121320e+001 2.000000e+001
    endloop
  endfacet
  facet normal -3.882056e-001 -0.000000e+000 0.000000e+000
    outer loop
      vertex   -4.278678e+002 6.121320e+001 2.000000e+001
      vertex   -4.278678e+002 1.373461e+001 0.000000e+000
      vertex   -4.278678e+002 1.373461e+001 2.000000e+001
    endloop
  endfacet
  facet normal -9.215728e-001 0.000000e+000 -0.000000e+000
    outer loop
      vertex   -4.278678e+002 1.373461e+001 2.000000e+001
      vertex   -4.278678e+002 1.373461e+001 0.000000e+000
      vertex   -4.278678e+002 -3.374398e+001 0.000000e+000
    endloop
  endfacet
  facet normal -3.882056e-001 -0.000000e+000 0.000000e+000
    outer loop
      vertex   -4.278678e+002 1.373461e+001 2.000000e+001
      vertex   -4.278678e+002 -3.374398e+001 0.000000e+000
      vertex   -4.278678e+002 -3.374398e+001 2.000000e+001
    endloop
  endfacet
endsolid
